# generated from PmQm by Jehee Lee
:FULLY-SPECIFIED
:DEGREES
275
root 9.80843 3.39977 4.51911 -17.8081 85.1376 63.6298
RightUpLeg -18.6373 10.2796 1.63798
RightLeg 9.73589 1.63061 -2.32696
RightFoot 7.1805 -1.03092 5.77022
RightToes 4.07452e-010 -1.59028e-015 9.93923e-017
Spine -20.8426 2.60681 5.66739
Spine1 19.3009 3.78091 -6.82508
HEad -41.8314 5.83895 9.34896
LeftShoulder1 9.93923e-017 -0 1.22299e-017
LeftArm 16.5647 26.5494 -29.704
LeftForeArm -9.38465 -11.8625 -1.20557
LeftHand 0.982515 7.04941 11.0994
RightShoulder 1.98785e-016 -4.96962e-017 1.55301e-017
RightArm 15.2104 -36.6185 30.2908
RightForeArm -12.2037 13.5836 -3.07777
RightHand 2.83118 -17.113 -12.7325
LeftUpLeg -16.2566 5.81449 9.0315
LeftLeg 11.2593 8.94419 3.1747
LeftFoot 13.2357 6.60541 -27.2138
LeftToes 1.53707e-010 -1.11459e-010 1.58109e-011
276
root 9.73792 3.35818 4.46061 -27.4225 85.0722 53.0346
RightUpLeg -16.8867 8.08202 3.03128
RightLeg 6.00963 2.43612 -2.10565
RightFoot 7.99576 -1.06314 5.71821
RightToes 4.07452e-010 -1.59028e-015 9.93923e-017
Spine -22.7545 2.67507 6.62402
Spine1 20.3261 3.51299 -6.57039
HEad -42.0218 6.26802 9.2919
LeftShoulder1 9.93923e-017 -0 1.22299e-017
LeftArm 12.019 28.4664 -32.1358
LeftForeArm -4.2876 -9.50433 -1.89074
LeftHand 1.17289 7.85601 10.4157
RightShoulder 1.98785e-016 -4.96962e-017 1.55301e-017
RightArm 9.38247 -39.1583 33.5245
RightForeArm -7.09884 11.8545 -1.47975
RightHand 3.12728 -17.8715 -13.9915
LeftUpLeg -17.2058 6.24567 9.69398
LeftLeg 10.7441 9.37572 3.02527
LeftFoot 13.9504 6.78027 -27.178
LeftToes 1.53707e-010 -1.11459e-010 1.58109e-011
277
root 9.64652 3.35051 4.37123 -38.5566 84.9013 40.8745
RightUpLeg -15.2982 6.57356 3.94223
RightLeg 1.65518 1.99101 -1.30733
RightFoot 9.22503 -1.11472 5.65369
RightToes 4.07452e-010 -1.59028e-015 9.93923e-017
Spine -24.9399 2.83026 8.05511
Spine1 21.3609 3.26578 -6.57482
HEad -42.2091 6.64431 9.24817
LeftShoulder1 9.93923e-017 -0 1.22299e-017
LeftArm 9.35281 30.9484 -34.8256
LeftForeArm 0.396939 -8.4814 -1.68953
LeftHand 1.38028 8.78093 9.5266
RightShoulder 1.98785e-016 -4.96962e-017 1.55301e-017
RightArm 8.29232 -41.3586 36.7257
RightForeArm -4.65678 10.8931 -0.165772
RightHand 3.42853 -18.7955 -14.7994
LeftUpLeg -18.1878 6.54485 10.2988
LeftLeg 10.0557 9.67052 2.85179
LeftFoot 14.5242 6.72803 -26.4128
LeftToes 1.53707e-010 -1.11459e-010 1.58109e-011
278
root 9.57057 3.40517 4.28031 -48.2412 84.9137 30.4831
RightUpLeg -14.0991 5.92702 3.96764
RightLeg -1.81053 0.225753 -0.150355
RightFoot 10.1668 -1.29787 6.30823
RightToes 4.07452e-010 -1.59028e-015 9.93923e-017
Spine -27.113 2.91406 8.99682
Spine1 22.563 3.02025 -6.5892
HEad -42.2432 6.95511 9.13642
LeftShoulder1 9.93923e-017 -0 1.22299e-017
LeftArm 9.28002 33.3887 -37.8204
LeftForeArm 3.85798 -8.17592 -1.81556
LeftHand 1.37952 8.77402 9.74507
RightShoulder 1.98785e-016 -4.96962e-017 1.55301e-017
RightArm 11.1316 -42.9011 39.8745
RightForeArm -4.07338 10.3068 1.49283
RightHand 3.54072 -19.0515 -15.2404
LeftUpLeg -18.9481 6.5411 10.4472
LeftLeg 9.63072 9.58979 2.7609
LeftFoot 14.0272 6.2127 -24.8804
LeftToes 1.53707e-010 -1.11459e-010 1.58109e-011
279
root 9.51927 3.4763 4.21543 -59.4531 85.4123 19.0826
RightUpLeg -13.4569 5.03816 3.37071
RightLeg -2.97316 -2.51602 0.53179
RightFoot 10.2825 -1.61328 7.8005
RightToes 4.07452e-010 -1.59028e-015 9.93923e-017
Spine -28.4577 2.56496 8.68
Spine1 23.4848 2.53699 -6.26845
HEad -42.2127 7.24833 8.83888
LeftShoulder1 9.93923e-017 -0 1.22299e-017
LeftArm 12.2357 35.0179 -41.4054
LeftForeArm 4.27835 -7.55454 -3.24042
LeftHand 1.18536 7.87547 11.4493
RightShoulder 1.98785e-016 -4.96962e-017 1.55301e-017
RightArm 14.3509 -44.2332 43.0126
RightForeArm -5.06325 10.179 2.6141
RightHand 3.43126 -18.524 -15.3739
LeftUpLeg -19.4822 5.93621 9.922
LeftLeg 9.67727 8.60264 2.87953
LeftFoot 12.1012 5.22662 -22.6166
LeftToes 1.53707e-010 -1.11459e-010 1.58109e-011
